<svg xmlns="http://www.w3.org/2000/svg"><symbol viewBox="0 0 24 24" id="arrow-down"><path d="M19.07 14.93l-1.41-1.42L13 18.17V2h-2v16.17l-4.66-4.66-1.41 1.42L12 22z"/></symbol><symbol viewBox="0 0 24 24" id="arrow-left"><path d="M9.07 19.07l1.42-1.41L5.83 13H22v-2H5.83l4.66-4.66-1.42-1.41L2 12z"/></symbol><symbol viewBox="0 0 24 24" id="arrow-right"><path d="M14.93 4.93l-1.42 1.41L18.17 11H2v2h16.17l-4.66 4.66 1.42 1.41L22 12z"/></symbol><symbol viewBox="0 0 24 24" id="arrow-up"><path d="M4.93 9.07l1.41 1.42L11 5.83V22h2V5.83l4.66 4.66 1.41-1.42L12 2z"/></symbol><symbol viewBox="0 0 24 24" id="circle"><path d="M12 2C6.5 2 2 6.5 2 12s4.5 10 10 10 10-4.5 10-10S17.5 2 12 2z"/></symbol><symbol viewBox="0 0 24 24" id="rectangle"><path d="M20 4H4c-1.1 0-2 .9-2 2v12c0 1.1.9 2 2 2h16c1.1 0 2-.9 2-2V6c0-1.1-.9-2-2-2z"/></symbol><symbol viewBox="0 0 24 24" id="square"><path d="M3 5v14c0 1.1.9 2 2 2h14c1.1 0 2-.9 2-2V5c0-1.1-.9-2-2-2H5c-1.1 0-2 .9-2 2z"/></symbol></svg>